<?xml version="1.0" encoding="utf-8" standalone="no"?>
<!DOCTYPE svg PUBLIC "-//W3C//DTD SVG 1.1//EN"
  "http://www.w3.org/Graphics/SVG/1.1/DTD/svg11.dtd">
<!-- Created with matplotlib (https://matplotlib.org/) -->
<svg height="432pt" version="1.1" viewBox="0 0 576 432" width="576pt" xmlns="http://www.w3.org/2000/svg" xmlns:xlink="http://www.w3.org/1999/xlink">
 <metadata>
  <rdf:RDF xmlns:cc="http://creativecommons.org/ns#" xmlns:dc="http://purl.org/dc/elements/1.1/" xmlns:rdf="http://www.w3.org/1999/02/22-rdf-syntax-ns#">
   <cc:Work>
    <dc:type rdf:resource="http://purl.org/dc/dcmitype/StillImage"/>
    <dc:date>2023-06-06T19:49:37.798507</dc:date>
    <dc:format>image/svg+xml</dc:format>
    <dc:creator>
     <cc:Agent>
      <dc:title>Matplotlib v3.3.2, https://matplotlib.org/</dc:title>
     </cc:Agent>
    </dc:creator>
   </cc:Work>
  </rdf:RDF>
 </metadata>
 <defs>
  <style type="text/css">*{stroke-linecap:butt;stroke-linejoin:round;}</style>
 </defs>
 <g id="figure_1">
  <g id="patch_1">
   <path d="M 0 432 
L 576 432 
L 576 0 
L 0 0 
z
" style="fill:#f0f0f0;"/>
  </g>
  <g id="axes_1">
   <g id="patch_2">
    <path d="M 46.08 401.76 
L 547.2 401.76 
L 547.2 51.84 
L 46.08 51.84 
z
" style="fill:#f0f0f0;"/>
   </g>
   <g id="matplotlib.axis_1">
    <g id="xtick_1">
     <g id="line2d_1">
      <path clip-path="url(#p1e0b11dfcd)" d="M 114.414545 401.76 
L 114.414545 51.84 
" style="fill:none;stroke:#cbcbcb;"/>
     </g>
     <g id="line2d_2"/>
     <g id="text_1">
      <!-- Asia -->
      <g transform="translate(99.74517 415.897813)scale(0.14 -0.14)">
       <defs>
        <path d="M 34.1875 63.1875 
L 20.796875 26.90625 
L 47.609375 26.90625 
z
M 28.609375 72.90625 
L 39.796875 72.90625 
L 67.578125 0 
L 57.328125 0 
L 50.6875 18.703125 
L 17.828125 18.703125 
L 11.1875 0 
L 0.78125 0 
z
" id="DejaVuSans-65"/>
        <path d="M 44.28125 53.078125 
L 44.28125 44.578125 
Q 40.484375 46.53125 36.375 47.5 
Q 32.28125 48.484375 27.875 48.484375 
Q 21.1875 48.484375 17.84375 46.4375 
Q 14.5 44.390625 14.5 40.28125 
Q 14.5 37.15625 16.890625 35.375 
Q 19.28125 33.59375 26.515625 31.984375 
L 29.59375 31.296875 
Q 39.15625 29.25 43.1875 25.515625 
Q 47.21875 21.78125 47.21875 15.09375 
Q 47.21875 7.46875 41.1875 3.015625 
Q 35.15625 -1.421875 24.609375 -1.421875 
Q 20.21875 -1.421875 15.453125 -0.5625 
Q 10.6875 0.296875 5.421875 2 
L 5.421875 11.28125 
Q 10.40625 8.6875 15.234375 7.390625 
Q 20.0625 6.109375 24.8125 6.109375 
Q 31.15625 6.109375 34.5625 8.28125 
Q 37.984375 10.453125 37.984375 14.40625 
Q 37.984375 18.0625 35.515625 20.015625 
Q 33.0625 21.96875 24.703125 23.78125 
L 21.578125 24.515625 
Q 13.234375 26.265625 9.515625 29.90625 
Q 5.8125 33.546875 5.8125 39.890625 
Q 5.8125 47.609375 11.28125 51.796875 
Q 16.75 56 26.8125 56 
Q 31.78125 56 36.171875 55.265625 
Q 40.578125 54.546875 44.28125 53.078125 
z
" id="DejaVuSans-115"/>
        <path d="M 9.421875 54.6875 
L 18.40625 54.6875 
L 18.40625 0 
L 9.421875 0 
z
M 9.421875 75.984375 
L 18.40625 75.984375 
L 18.40625 64.59375 
L 9.421875 64.59375 
z
" id="DejaVuSans-105"/>
        <path d="M 34.28125 27.484375 
Q 23.390625 27.484375 19.1875 25 
Q 14.984375 22.515625 14.984375 16.5 
Q 14.984375 11.71875 18.140625 8.90625 
Q 21.296875 6.109375 26.703125 6.109375 
Q 34.1875 6.109375 38.703125 11.40625 
Q 43.21875 16.703125 43.21875 25.484375 
L 43.21875 27.484375 
z
M 52.203125 31.203125 
L 52.203125 0 
L 43.21875 0 
L 43.21875 8.296875 
Q 40.140625 3.328125 35.546875 0.953125 
Q 30.953125 -1.421875 24.3125 -1.421875 
Q 15.921875 -1.421875 10.953125 3.296875 
Q 6 8.015625 6 15.921875 
Q 6 25.140625 12.171875 29.828125 
Q 18.359375 34.515625 30.609375 34.515625 
L 43.21875 34.515625 
L 43.21875 35.40625 
Q 43.21875 41.609375 39.140625 45 
Q 35.0625 48.390625 27.6875 48.390625 
Q 23 48.390625 18.546875 47.265625 
Q 14.109375 46.140625 10.015625 43.890625 
L 10.015625 52.203125 
Q 14.9375 54.109375 19.578125 55.046875 
Q 24.21875 56 28.609375 56 
Q 40.484375 56 46.34375 49.84375 
Q 52.203125 43.703125 52.203125 31.203125 
z
" id="DejaVuSans-97"/>
       </defs>
       <use xlink:href="#DejaVuSans-65"/>
       <use x="68.408203" xlink:href="#DejaVuSans-115"/>
       <use x="120.507812" xlink:href="#DejaVuSans-105"/>
       <use x="148.291016" xlink:href="#DejaVuSans-97"/>
      </g>
     </g>
    </g>
    <g id="xtick_2">
     <g id="line2d_3">
      <path clip-path="url(#p1e0b11dfcd)" d="M 296.64 401.76 
L 296.64 51.84 
" style="fill:none;stroke:#cbcbcb;"/>
     </g>
     <g id="line2d_4"/>
     <g id="text_2">
      <!-- Europe -->
      <g transform="translate(272.02625 415.897813)scale(0.14 -0.14)">
       <defs>
        <path d="M 9.8125 72.90625 
L 55.90625 72.90625 
L 55.90625 64.59375 
L 19.671875 64.59375 
L 19.671875 43.015625 
L 54.390625 43.015625 
L 54.390625 34.71875 
L 19.671875 34.71875 
L 19.671875 8.296875 
L 56.78125 8.296875 
L 56.78125 0 
L 9.8125 0 
z
" id="DejaVuSans-69"/>
        <path d="M 8.5 21.578125 
L 8.5 54.6875 
L 17.484375 54.6875 
L 17.484375 21.921875 
Q 17.484375 14.15625 20.5 10.265625 
Q 23.53125 6.390625 29.59375 6.390625 
Q 36.859375 6.390625 41.078125 11.03125 
Q 45.3125 15.671875 45.3125 23.6875 
L 45.3125 54.6875 
L 54.296875 54.6875 
L 54.296875 0 
L 45.3125 0 
L 45.3125 8.40625 
Q 42.046875 3.421875 37.71875 1 
Q 33.40625 -1.421875 27.6875 -1.421875 
Q 18.265625 -1.421875 13.375 4.4375 
Q 8.5 10.296875 8.5 21.578125 
z
M 31.109375 56 
z
" id="DejaVuSans-117"/>
        <path d="M 41.109375 46.296875 
Q 39.59375 47.171875 37.8125 47.578125 
Q 36.03125 48 33.890625 48 
Q 26.265625 48 22.1875 43.046875 
Q 18.109375 38.09375 18.109375 28.8125 
L 18.109375 0 
L 9.078125 0 
L 9.078125 54.6875 
L 18.109375 54.6875 
L 18.109375 46.1875 
Q 20.953125 51.171875 25.484375 53.578125 
Q 30.03125 56 36.53125 56 
Q 37.453125 56 38.578125 55.875 
Q 39.703125 55.765625 41.0625 55.515625 
z
" id="DejaVuSans-114"/>
        <path d="M 30.609375 48.390625 
Q 23.390625 48.390625 19.1875 42.75 
Q 14.984375 37.109375 14.984375 27.296875 
Q 14.984375 17.484375 19.15625 11.84375 
Q 23.34375 6.203125 30.609375 6.203125 
Q 37.796875 6.203125 41.984375 11.859375 
Q 46.1875 17.53125 46.1875 27.296875 
Q 46.1875 37.015625 41.984375 42.703125 
Q 37.796875 48.390625 30.609375 48.390625 
z
M 30.609375 56 
Q 42.328125 56 49.015625 48.375 
Q 55.71875 40.765625 55.71875 27.296875 
Q 55.71875 13.875 49.015625 6.21875 
Q 42.328125 -1.421875 30.609375 -1.421875 
Q 18.84375 -1.421875 12.171875 6.21875 
Q 5.515625 13.875 5.515625 27.296875 
Q 5.515625 40.765625 12.171875 48.375 
Q 18.84375 56 30.609375 56 
z
" id="DejaVuSans-111"/>
        <path d="M 18.109375 8.203125 
L 18.109375 -20.796875 
L 9.078125 -20.796875 
L 9.078125 54.6875 
L 18.109375 54.6875 
L 18.109375 46.390625 
Q 20.953125 51.265625 25.265625 53.625 
Q 29.59375 56 35.59375 56 
Q 45.5625 56 51.78125 48.09375 
Q 58.015625 40.1875 58.015625 27.296875 
Q 58.015625 14.40625 51.78125 6.484375 
Q 45.5625 -1.421875 35.59375 -1.421875 
Q 29.59375 -1.421875 25.265625 0.953125 
Q 20.953125 3.328125 18.109375 8.203125 
z
M 48.6875 27.296875 
Q 48.6875 37.203125 44.609375 42.84375 
Q 40.53125 48.484375 33.40625 48.484375 
Q 26.265625 48.484375 22.1875 42.84375 
Q 18.109375 37.203125 18.109375 27.296875 
Q 18.109375 17.390625 22.1875 11.75 
Q 26.265625 6.109375 33.40625 6.109375 
Q 40.53125 6.109375 44.609375 11.75 
Q 48.6875 17.390625 48.6875 27.296875 
z
" id="DejaVuSans-112"/>
        <path d="M 56.203125 29.59375 
L 56.203125 25.203125 
L 14.890625 25.203125 
Q 15.484375 15.921875 20.484375 11.0625 
Q 25.484375 6.203125 34.421875 6.203125 
Q 39.59375 6.203125 44.453125 7.46875 
Q 49.3125 8.734375 54.109375 11.28125 
L 54.109375 2.78125 
Q 49.265625 0.734375 44.1875 -0.34375 
Q 39.109375 -1.421875 33.890625 -1.421875 
Q 20.796875 -1.421875 13.15625 6.1875 
Q 5.515625 13.8125 5.515625 26.8125 
Q 5.515625 40.234375 12.765625 48.109375 
Q 20.015625 56 32.328125 56 
Q 43.359375 56 49.78125 48.890625 
Q 56.203125 41.796875 56.203125 29.59375 
z
M 47.21875 32.234375 
Q 47.125 39.59375 43.09375 43.984375 
Q 39.0625 48.390625 32.421875 48.390625 
Q 24.90625 48.390625 20.390625 44.140625 
Q 15.875 39.890625 15.1875 32.171875 
z
" id="DejaVuSans-101"/>
       </defs>
       <use xlink:href="#DejaVuSans-69"/>
       <use x="63.183594" xlink:href="#DejaVuSans-117"/>
       <use x="126.5625" xlink:href="#DejaVuSans-114"/>
       <use x="165.425781" xlink:href="#DejaVuSans-111"/>
       <use x="226.607422" xlink:href="#DejaVuSans-112"/>
       <use x="290.083984" xlink:href="#DejaVuSans-101"/>
      </g>
     </g>
    </g>
    <g id="xtick_3">
     <g id="line2d_5">
      <path clip-path="url(#p1e0b11dfcd)" d="M 478.865455 401.76 
L 478.865455 51.84 
" style="fill:none;stroke:#cbcbcb;"/>
     </g>
     <g id="line2d_6"/>
     <g id="text_3">
      <!-- USA -->
      <g transform="translate(464.378736 415.897813)scale(0.14 -0.14)">
       <defs>
        <path d="M 8.6875 72.90625 
L 18.609375 72.90625 
L 18.609375 28.609375 
Q 18.609375 16.890625 22.84375 11.734375 
Q 27.09375 6.59375 36.625 6.59375 
Q 46.09375 6.59375 50.34375 11.734375 
Q 54.59375 16.890625 54.59375 28.609375 
L 54.59375 72.90625 
L 64.5 72.90625 
L 64.5 27.390625 
Q 64.5 13.140625 57.4375 5.859375 
Q 50.390625 -1.421875 36.625 -1.421875 
Q 22.796875 -1.421875 15.734375 5.859375 
Q 8.6875 13.140625 8.6875 27.390625 
z
" id="DejaVuSans-85"/>
        <path d="M 53.515625 70.515625 
L 53.515625 60.890625 
Q 47.90625 63.578125 42.921875 64.890625 
Q 37.9375 66.21875 33.296875 66.21875 
Q 25.25 66.21875 20.875 63.09375 
Q 16.5 59.96875 16.5 54.203125 
Q 16.5 49.359375 19.40625 46.890625 
Q 22.3125 44.4375 30.421875 42.921875 
L 36.375 41.703125 
Q 47.40625 39.59375 52.65625 34.296875 
Q 57.90625 29 57.90625 20.125 
Q 57.90625 9.515625 50.796875 4.046875 
Q 43.703125 -1.421875 29.984375 -1.421875 
Q 24.8125 -1.421875 18.96875 -0.25 
Q 13.140625 0.921875 6.890625 3.21875 
L 6.890625 13.375 
Q 12.890625 10.015625 18.65625 8.296875 
Q 24.421875 6.59375 29.984375 6.59375 
Q 38.421875 6.59375 43.015625 9.90625 
Q 47.609375 13.234375 47.609375 19.390625 
Q 47.609375 24.75 44.3125 27.78125 
Q 41.015625 30.8125 33.5 32.328125 
L 27.484375 33.5 
Q 16.453125 35.6875 11.515625 40.375 
Q 6.59375 45.0625 6.59375 53.421875 
Q 6.59375 63.09375 13.40625 68.65625 
Q 20.21875 74.21875 32.171875 74.21875 
Q 37.3125 74.21875 42.625 73.28125 
Q 47.953125 72.359375 53.515625 70.515625 
z
" id="DejaVuSans-83"/>
       </defs>
       <use xlink:href="#DejaVuSans-85"/>
       <use x="73.193359" xlink:href="#DejaVuSans-83"/>
       <use x="138.544922" xlink:href="#DejaVuSans-65"/>
      </g>
     </g>
    </g>
   </g>
   <g id="matplotlib.axis_2">
    <g id="ytick_1">
     <g id="line2d_7">
      <path clip-path="url(#p1e0b11dfcd)" d="M 46.08 391.972028 
L 547.2 391.972028 
" style="fill:none;stroke:#cbcbcb;"/>
     </g>
     <g id="line2d_8"/>
     <g id="text_4">
      <!-- 10 -->
      <g transform="translate(24.765 397.290934)scale(0.14 -0.14)">
       <defs>
        <path d="M 12.40625 8.296875 
L 28.515625 8.296875 
L 28.515625 63.921875 
L 10.984375 60.40625 
L 10.984375 69.390625 
L 28.421875 72.90625 
L 38.28125 72.90625 
L 38.28125 8.296875 
L 54.390625 8.296875 
L 54.390625 0 
L 12.40625 0 
z
" id="DejaVuSans-49"/>
        <path d="M 31.78125 66.40625 
Q 24.171875 66.40625 20.328125 58.90625 
Q 16.5 51.421875 16.5 36.375 
Q 16.5 21.390625 20.328125 13.890625 
Q 24.171875 6.390625 31.78125 6.390625 
Q 39.453125 6.390625 43.28125 13.890625 
Q 47.125 21.390625 47.125 36.375 
Q 47.125 51.421875 43.28125 58.90625 
Q 39.453125 66.40625 31.78125 66.40625 
z
M 31.78125 74.21875 
Q 44.046875 74.21875 50.515625 64.515625 
Q 56.984375 54.828125 56.984375 36.375 
Q 56.984375 17.96875 50.515625 8.265625 
Q 44.046875 -1.421875 31.78125 -1.421875 
Q 19.53125 -1.421875 13.0625 8.265625 
Q 6.59375 17.96875 6.59375 36.375 
Q 6.59375 54.828125 13.0625 64.515625 
Q 19.53125 74.21875 31.78125 74.21875 
z
" id="DejaVuSans-48"/>
       </defs>
       <use xlink:href="#DejaVuSans-49"/>
       <use x="63.623047" xlink:href="#DejaVuSans-48"/>
      </g>
     </g>
    </g>
    <g id="ytick_2">
     <g id="line2d_9">
      <path clip-path="url(#p1e0b11dfcd)" d="M 46.08 330.797203 
L 547.2 330.797203 
" style="fill:none;stroke:#cbcbcb;"/>
     </g>
     <g id="line2d_10"/>
     <g id="text_5">
      <!-- 20 -->
      <g transform="translate(24.765 336.116109)scale(0.14 -0.14)">
       <defs>
        <path d="M 19.1875 8.296875 
L 53.609375 8.296875 
L 53.609375 0 
L 7.328125 0 
L 7.328125 8.296875 
Q 12.9375 14.109375 22.625 23.890625 
Q 32.328125 33.6875 34.8125 36.53125 
Q 39.546875 41.84375 41.421875 45.53125 
Q 43.3125 49.21875 43.3125 52.78125 
Q 43.3125 58.59375 39.234375 62.25 
Q 35.15625 65.921875 28.609375 65.921875 
Q 23.96875 65.921875 18.8125 64.3125 
Q 13.671875 62.703125 7.8125 59.421875 
L 7.8125 69.390625 
Q 13.765625 71.78125 18.9375 73 
Q 24.125 74.21875 28.421875 74.21875 
Q 39.75 74.21875 46.484375 68.546875 
Q 53.21875 62.890625 53.21875 53.421875 
Q 53.21875 48.921875 51.53125 44.890625 
Q 49.859375 40.875 45.40625 35.40625 
Q 44.1875 33.984375 37.640625 27.21875 
Q 31.109375 20.453125 19.1875 8.296875 
z
" id="DejaVuSans-50"/>
       </defs>
       <use xlink:href="#DejaVuSans-50"/>
       <use x="63.623047" xlink:href="#DejaVuSans-48"/>
      </g>
     </g>
    </g>
    <g id="ytick_3">
     <g id="line2d_11">
      <path clip-path="url(#p1e0b11dfcd)" d="M 46.08 269.622378 
L 547.2 269.622378 
" style="fill:none;stroke:#cbcbcb;"/>
     </g>
     <g id="line2d_12"/>
     <g id="text_6">
      <!-- 30 -->
      <g transform="translate(24.765 274.941284)scale(0.14 -0.14)">
       <defs>
        <path d="M 40.578125 39.3125 
Q 47.65625 37.796875 51.625 33 
Q 55.609375 28.21875 55.609375 21.1875 
Q 55.609375 10.40625 48.1875 4.484375 
Q 40.765625 -1.421875 27.09375 -1.421875 
Q 22.515625 -1.421875 17.65625 -0.515625 
Q 12.796875 0.390625 7.625 2.203125 
L 7.625 11.71875 
Q 11.71875 9.328125 16.59375 8.109375 
Q 21.484375 6.890625 26.8125 6.890625 
Q 36.078125 6.890625 40.9375 10.546875 
Q 45.796875 14.203125 45.796875 21.1875 
Q 45.796875 27.640625 41.28125 31.265625 
Q 36.765625 34.90625 28.71875 34.90625 
L 20.21875 34.90625 
L 20.21875 43.015625 
L 29.109375 43.015625 
Q 36.375 43.015625 40.234375 45.921875 
Q 44.09375 48.828125 44.09375 54.296875 
Q 44.09375 59.90625 40.109375 62.90625 
Q 36.140625 65.921875 28.71875 65.921875 
Q 24.65625 65.921875 20.015625 65.03125 
Q 15.375 64.15625 9.8125 62.3125 
L 9.8125 71.09375 
Q 15.4375 72.65625 20.34375 73.4375 
Q 25.25 74.21875 29.59375 74.21875 
Q 40.828125 74.21875 47.359375 69.109375 
Q 53.90625 64.015625 53.90625 55.328125 
Q 53.90625 49.265625 50.4375 45.09375 
Q 46.96875 40.921875 40.578125 39.3125 
z
" id="DejaVuSans-51"/>
       </defs>
       <use xlink:href="#DejaVuSans-51"/>
       <use x="63.623047" xlink:href="#DejaVuSans-48"/>
      </g>
     </g>
    </g>
    <g id="ytick_4">
     <g id="line2d_13">
      <path clip-path="url(#p1e0b11dfcd)" d="M 46.08 208.447552 
L 547.2 208.447552 
" style="fill:none;stroke:#cbcbcb;"/>
     </g>
     <g id="line2d_14"/>
     <g id="text_7">
      <!-- 40 -->
      <g transform="translate(24.765 213.766459)scale(0.14 -0.14)">
       <defs>
        <path d="M 37.796875 64.3125 
L 12.890625 25.390625 
L 37.796875 25.390625 
z
M 35.203125 72.90625 
L 47.609375 72.90625 
L 47.609375 25.390625 
L 58.015625 25.390625 
L 58.015625 17.1875 
L 47.609375 17.1875 
L 47.609375 0 
L 37.796875 0 
L 37.796875 17.1875 
L 4.890625 17.1875 
L 4.890625 26.703125 
z
" id="DejaVuSans-52"/>
       </defs>
       <use xlink:href="#DejaVuSans-52"/>
       <use x="63.623047" xlink:href="#DejaVuSans-48"/>
      </g>
     </g>
    </g>
    <g id="ytick_5">
     <g id="line2d_15">
      <path clip-path="url(#p1e0b11dfcd)" d="M 46.08 147.272727 
L 547.2 147.272727 
" style="fill:none;stroke:#cbcbcb;"/>
     </g>
     <g id="line2d_16"/>
     <g id="text_8">
      <!-- 50 -->
      <g transform="translate(24.765 152.591634)scale(0.14 -0.14)">
       <defs>
        <path d="M 10.796875 72.90625 
L 49.515625 72.90625 
L 49.515625 64.59375 
L 19.828125 64.59375 
L 19.828125 46.734375 
Q 21.96875 47.46875 24.109375 47.828125 
Q 26.265625 48.1875 28.421875 48.1875 
Q 40.625 48.1875 47.75 41.5 
Q 54.890625 34.8125 54.890625 23.390625 
Q 54.890625 11.625 47.5625 5.09375 
Q 40.234375 -1.421875 26.90625 -1.421875 
Q 22.3125 -1.421875 17.546875 -0.640625 
Q 12.796875 0.140625 7.71875 1.703125 
L 7.71875 11.625 
Q 12.109375 9.234375 16.796875 8.0625 
Q 21.484375 6.890625 26.703125 6.890625 
Q 35.15625 6.890625 40.078125 11.328125 
Q 45.015625 15.765625 45.015625 23.390625 
Q 45.015625 31 40.078125 35.4375 
Q 35.15625 39.890625 26.703125 39.890625 
Q 22.75 39.890625 18.8125 39.015625 
Q 14.890625 38.140625 10.796875 36.28125 
z
" id="DejaVuSans-53"/>
       </defs>
       <use xlink:href="#DejaVuSans-53"/>
       <use x="63.623047" xlink:href="#DejaVuSans-48"/>
      </g>
     </g>
    </g>
    <g id="ytick_6">
     <g id="line2d_17">
      <path clip-path="url(#p1e0b11dfcd)" d="M 46.08 86.097902 
L 547.2 86.097902 
" style="fill:none;stroke:#cbcbcb;"/>
     </g>
     <g id="line2d_18"/>
     <g id="text_9">
      <!-- 60 -->
      <g transform="translate(24.765 91.416808)scale(0.14 -0.14)">
       <defs>
        <path d="M 33.015625 40.375 
Q 26.375 40.375 22.484375 35.828125 
Q 18.609375 31.296875 18.609375 23.390625 
Q 18.609375 15.53125 22.484375 10.953125 
Q 26.375 6.390625 33.015625 6.390625 
Q 39.65625 6.390625 43.53125 10.953125 
Q 47.40625 15.53125 47.40625 23.390625 
Q 47.40625 31.296875 43.53125 35.828125 
Q 39.65625 40.375 33.015625 40.375 
z
M 52.59375 71.296875 
L 52.59375 62.3125 
Q 48.875 64.0625 45.09375 64.984375 
Q 41.3125 65.921875 37.59375 65.921875 
Q 27.828125 65.921875 22.671875 59.328125 
Q 17.53125 52.734375 16.796875 39.40625 
Q 19.671875 43.65625 24.015625 45.921875 
Q 28.375 48.1875 33.59375 48.1875 
Q 44.578125 48.1875 50.953125 41.515625 
Q 57.328125 34.859375 57.328125 23.390625 
Q 57.328125 12.15625 50.6875 5.359375 
Q 44.046875 -1.421875 33.015625 -1.421875 
Q 20.359375 -1.421875 13.671875 8.265625 
Q 6.984375 17.96875 6.984375 36.375 
Q 6.984375 53.65625 15.1875 63.9375 
Q 23.390625 74.21875 37.203125 74.21875 
Q 40.921875 74.21875 44.703125 73.484375 
Q 48.484375 72.75 52.59375 71.296875 
z
" id="DejaVuSans-54"/>
       </defs>
       <use xlink:href="#DejaVuSans-54"/>
       <use x="63.623047" xlink:href="#DejaVuSans-48"/>
      </g>
     </g>
    </g>
   </g>
   <g id="PolyCollection_1">
    <path clip-path="url(#p1e0b11dfcd)" d="M 123.397651 361.384615 
L 105.43144 361.384615 
L 103.723423 358.418563 
L 101.864865 355.452511 
L 99.843549 352.486459 
L 97.640531 349.520407 
L 95.235954 346.554355 
L 92.617868 343.588303 
L 89.792381 340.62225 
L 86.792742 337.656198 
L 83.684884 334.690146 
L 80.567523 331.724094 
L 77.566051 328.758042 
L 74.820822 325.79199 
L 72.471698 322.825938 
L 70.641476 319.859886 
L 69.420979 316.893833 
L 68.858182 313.927781 
L 68.952927 310.961729 
L 69.657927 307.995677 
L 70.885845 305.029625 
L 72.521484 302.063573 
L 74.437379 299.097521 
L 76.510478 296.131469 
L 78.637159 293.165416 
L 80.743933 290.199364 
L 82.791831 287.233312 
L 84.77378 284.26726 
L 86.705849 281.301208 
L 88.614714 278.335156 
L 90.524495 275.369104 
L 92.446075 272.403051 
L 94.371155 269.436999 
L 96.271928 266.470947 
L 98.105875 263.504895 
L 99.824085 260.538843 
L 101.38094 257.572791 
L 102.742958 254.606739 
L 103.89499 251.640687 
L 104.842602 248.674634 
L 105.610371 245.708582 
L 106.236644 242.74253 
L 106.766084 239.776478 
L 107.241776 236.810426 
L 107.698685 233.844374 
L 108.159792 230.878322 
L 108.635443 227.91227 
L 109.125503 224.946217 
L 109.623209 221.980165 
L 110.119281 219.014113 
L 110.605094 216.048061 
L 111.074231 213.082009 
L 111.522474 210.115957 
L 111.946774 207.149905 
L 112.344011 204.183853 
L 112.710173 201.2178 
L 113.040288 198.251748 
L 113.329035 195.285696 
L 113.571709 192.319644 
L 113.765174 189.353592 
L 113.908503 186.38754 
L 114.003228 183.421488 
L 114.053254 180.455435 
L 114.06456 177.489383 
L 114.044828 174.523331 
L 114.003007 171.557279 
L 113.948791 168.591227 
L 113.891931 165.625175 
L 113.841376 162.659123 
L 113.804295 159.693071 
L 113.785162 156.727018 
L 113.785135 153.760966 
L 113.801919 150.794914 
L 113.830232 147.828862 
L 113.862848 144.86281 
L 113.892033 141.896758 
L 113.911095 138.930706 
L 113.915732 135.964654 
L 113.904898 132.998601 
L 113.881019 130.032549 
L 113.849492 127.066497 
L 113.817596 124.100445 
L 113.793019 121.134393 
L 113.782323 118.168341 
L 113.78965 115.202289 
L 113.815939 112.236236 
L 113.85878 109.270184 
L 113.912884 106.304132 
L 113.971046 103.33808 
L 114.025349 100.372028 
L 114.068397 97.405976 
L 114.094365 94.439924 
L 114.099773 91.473872 
L 114.083927 88.507819 
L 114.049016 85.541767 
L 113.999869 82.575715 
L 113.94339 79.609663 
L 113.887672 76.643611 
L 113.840904 73.677559 
L 113.810186 70.711507 
L 113.800477 67.745455 
L 115.028614 67.745455 
L 115.028614 67.745455 
L 115.018905 70.711507 
L 114.988187 73.677559 
L 114.941419 76.643611 
L 114.885701 79.609663 
L 114.829221 82.575715 
L 114.780075 85.541767 
L 114.745164 88.507819 
L 114.729318 91.473872 
L 114.734726 94.439924 
L 114.760694 97.405976 
L 114.803742 100.372028 
L 114.858045 103.33808 
L 114.916207 106.304132 
L 114.970311 109.270184 
L 115.013151 112.236236 
L 115.039441 115.202289 
L 115.046768 118.168341 
L 115.036072 121.134393 
L 115.011495 124.100445 
L 114.979599 127.066497 
L 114.948072 130.032549 
L 114.924193 132.998601 
L 114.913359 135.964654 
L 114.917996 138.930706 
L 114.937058 141.896758 
L 114.966243 144.86281 
L 114.998859 147.828862 
L 115.027172 150.794914 
L 115.043956 153.760966 
L 115.043929 156.727018 
L 115.024796 159.693071 
L 114.987714 162.659123 
L 114.93716 165.625175 
L 114.8803 168.591227 
L 114.826084 171.557279 
L 114.784263 174.523331 
L 114.764531 177.489383 
L 114.775837 180.455435 
L 114.825862 183.421488 
L 114.920588 186.38754 
L 115.063917 189.353592 
L 115.257382 192.319644 
L 115.500056 195.285696 
L 115.788803 198.251748 
L 116.118918 201.2178 
L 116.48508 204.183853 
L 116.882317 207.149905 
L 117.306617 210.115957 
L 117.754859 213.082009 
L 118.223997 216.048061 
L 118.70981 219.014113 
L 119.205882 221.980165 
L 119.703588 224.946217 
L 120.193648 227.91227 
L 120.669299 230.878322 
L 121.130406 233.844374 
L 121.587315 236.810426 
L 122.063007 239.776478 
L 122.592447 242.74253 
L 123.21872 245.708582 
L 123.986489 248.674634 
L 124.934101 251.640687 
L 126.086133 254.606739 
L 127.448151 257.572791 
L 129.005005 260.538843 
L 130.723215 263.504895 
L 132.557163 266.470947 
L 134.457936 269.436999 
L 136.383016 272.403051 
L 138.304596 275.369104 
L 140.214377 278.335156 
L 142.123242 281.301208 
L 144.055311 284.26726 
L 146.03726 287.233312 
L 148.085158 290.199364 
L 150.191932 293.165416 
L 152.318613 296.131469 
L 154.391712 299.097521 
L 156.307607 302.063573 
L 157.943246 305.029625 
L 159.171164 307.995677 
L 159.876164 310.961729 
L 159.970909 313.927781 
L 159.408112 316.893833 
L 158.187615 319.859886 
L 156.357393 322.825938 
L 154.008269 325.79199 
L 151.26304 328.758042 
L 148.261568 331.724094 
L 145.144207 334.690146 
L 142.036349 337.656198 
L 139.03671 340.62225 
L 136.211223 343.588303 
L 133.593137 346.554355 
L 131.188559 349.520407 
L 128.985542 352.486459 
L 126.964226 355.452511 
L 125.105667 358.418563 
L 123.397651 361.384615 
z
" style="fill:#008fd5;fill-opacity:0.3;"/>
   </g>
   <g id="PolyCollection_2">
    <path clip-path="url(#p1e0b11dfcd)" d="M 300.207029 370.560839 
L 293.072971 370.560839 
L 292.544464 368.799746 
L 292.014029 367.038652 
L 291.484304 365.277559 
L 290.954928 363.516465 
L 290.423176 361.755372 
L 289.884196 359.994278 
L 289.330582 358.233185 
L 288.751431 356.472092 
L 288.131404 354.710998 
L 287.450487 352.949905 
L 286.684954 351.188811 
L 285.809684 349.427718 
L 284.801513 347.666624 
L 283.642903 345.905531 
L 282.32498 344.144437 
L 280.849004 342.383344 
L 279.225601 340.62225 
L 277.471659 338.861157 
L 275.605568 337.100064 
L 273.642293 335.33897 
L 271.590257 333.577877 
L 269.451821 331.816783 
L 267.228149 330.05569 
L 264.927641 328.294596 
L 262.575509 326.533503 
L 260.221102 324.772409 
L 257.939915 323.011316 
L 255.828733 321.250223 
L 253.994631 319.489129 
L 252.540559 317.728036 
L 251.551354 315.966942 
L 251.083636 314.205849 
L 251.161519 312.444755 
L 251.778092 310.683662 
L 252.900942 308.922568 
L 254.479219 307.161475 
L 256.450093 305.400381 
L 258.74346 303.639288 
L 261.284989 301.878195 
L 263.998409 300.117101 
L 266.808098 298.356008 
L 269.642488 296.594914 
L 272.438005 294.833821 
L 275.14256 293.072727 
L 277.717461 291.311634 
L 280.137038 289.55054 
L 282.386092 287.789447 
L 284.45614 286.028353 
L 286.341815 284.26726 
L 288.038624 282.506167 
L 289.542611 280.745073 
L 290.851611 278.98398 
L 291.967181 277.222886 
L 292.896103 275.461793 
L 293.650722 273.700699 
L 294.247974 271.939606 
L 294.707527 270.178512 
L 295.049809 268.417419 
L 295.294578 266.656325 
L 295.460357 264.895232 
L 295.564609 263.134139 
L 295.624185 261.373045 
L 295.655538 259.611952 
L 295.674332 257.850858 
L 295.694456 256.089765 
L 295.726727 254.328671 
L 295.777751 252.567578 
L 295.849393 250.806484 
L 295.939091 249.045391 
L 296.040958 247.284298 
L 296.147378 245.523204 
L 296.250697 243.762111 
L 296.344586 242.001017 
L 296.424861 240.239924 
L 296.489681 238.47883 
L 296.539251 236.717737 
L 296.575221 234.956643 
L 296.600014 233.19555 
L 296.616229 231.434456 
L 296.626216 229.673363 
L 296.631829 227.91227 
L 296.634324 226.151176 
L 296.634324 224.390083 
L 296.63183 222.628989 
L 296.626219 220.867896 
L 296.616237 219.106802 
L 296.600036 217.345709 
L 296.575274 215.584615 
L 296.539379 213.823522 
L 296.489979 212.062428 
L 296.425521 210.301335 
L 296.345991 208.540242 
L 296.253567 206.779148 
L 296.153004 205.018055 
L 296.051547 203.256961 
L 295.958235 201.495868 
L 295.882654 199.734774 
L 295.833341 197.973681 
L 295.8162 196.212587 
L 297.4638 196.212587 
L 297.4638 196.212587 
L 297.446659 197.973681 
L 297.397346 199.734774 
L 297.321765 201.495868 
L 297.228453 203.256961 
L 297.126996 205.018055 
L 297.026433 206.779148 
L 296.934009 208.540242 
L 296.854479 210.301335 
L 296.790021 212.062428 
L 296.740621 213.823522 
L 296.704726 215.584615 
L 296.679964 217.345709 
L 296.663763 219.106802 
L 296.653781 220.867896 
L 296.64817 222.628989 
L 296.645676 224.390083 
L 296.645676 226.151176 
L 296.648171 227.91227 
L 296.653784 229.673363 
L 296.663771 231.434456 
L 296.679986 233.19555 
L 296.704779 234.956643 
L 296.740749 236.717737 
L 296.790319 238.47883 
L 296.855139 240.239924 
L 296.935414 242.001017 
L 297.029303 243.762111 
L 297.132622 245.523204 
L 297.239042 247.284298 
L 297.340909 249.045391 
L 297.430607 250.806484 
L 297.502249 252.567578 
L 297.553273 254.328671 
L 297.585544 256.089765 
L 297.605668 257.850858 
L 297.624462 259.611952 
L 297.655815 261.373045 
L 297.715391 263.134139 
L 297.819643 264.895232 
L 297.985422 266.656325 
L 298.230191 268.417419 
L 298.572473 270.178512 
L 299.032026 271.939606 
L 299.629278 273.700699 
L 300.383897 275.461793 
L 301.312819 277.222886 
L 302.428389 278.98398 
L 303.737389 280.745073 
L 305.241376 282.506167 
L 306.938185 284.26726 
L 308.82386 286.028353 
L 310.893908 287.789447 
L 313.142962 289.55054 
L 315.562539 291.311634 
L 318.13744 293.072727 
L 320.841995 294.833821 
L 323.637512 296.594914 
L 326.471902 298.356008 
L 329.281591 300.117101 
L 331.995011 301.878195 
L 334.53654 303.639288 
L 336.829907 305.400381 
L 338.800781 307.161475 
L 340.379058 308.922568 
L 341.501908 310.683662 
L 342.118481 312.444755 
L 342.196364 314.205849 
L 341.728646 315.966942 
L 340.739441 317.728036 
L 339.285369 319.489129 
L 337.451267 321.250223 
L 335.340085 323.011316 
L 333.058898 324.772409 
L 330.704491 326.533503 
L 328.352359 328.294596 
L 326.051851 330.05569 
L 323.828179 331.816783 
L 321.689743 333.577877 
L 319.637707 335.33897 
L 317.674432 337.100064 
L 315.808341 338.861157 
L 314.054399 340.62225 
L 312.430996 342.383344 
L 310.95502 344.144437 
L 309.637097 345.905531 
L 308.478487 347.666624 
L 307.470316 349.427718 
L 306.595046 351.188811 
L 305.829513 352.949905 
L 305.148596 354.710998 
L 304.528569 356.472092 
L 303.949418 358.233185 
L 303.395804 359.994278 
L 302.856824 361.755372 
L 302.325072 363.516465 
L 301.795696 365.277559 
L 301.265971 367.038652 
L 300.735536 368.799746 
L 300.207029 370.560839 
z
" style="fill:#008fd5;fill-opacity:0.3;"/>
   </g>
   <g id="PolyCollection_3">
    <path clip-path="url(#p1e0b11dfcd)" d="M 480.768746 385.854545 
L 476.962163 385.854545 
L 476.820551 384.526001 
L 476.665502 383.197457 
L 476.488234 381.868913 
L 476.278165 380.540369 
L 476.023364 379.211825 
L 475.711172 377.88328 
L 475.328979 376.554736 
L 474.865088 375.226192 
L 474.309615 373.897648 
L 473.655331 372.569104 
L 472.898378 371.240559 
L 472.038785 369.912015 
L 471.080721 368.583471 
L 470.03247 367.254927 
L 468.90609 365.926383 
L 467.71682 364.597839 
L 466.48225 363.269294 
L 465.221348 361.94075 
L 463.953417 360.612206 
L 462.69707 359.283662 
L 461.469301 357.955118 
L 460.284698 356.626573 
L 459.154833 355.298029 
L 458.087842 353.969485 
L 457.088173 352.640941 
L 456.156478 351.312397 
L 455.289633 349.983853 
L 454.480856 348.655308 
L 453.719936 347.326764 
L 452.993577 345.99822 
L 452.285903 344.669676 
L 451.579142 343.341132 
L 450.854526 342.012587 
L 450.093402 340.684043 
L 449.278525 339.355499 
L 448.395458 338.026955 
L 447.433977 336.698411 
L 446.389326 335.369866 
L 445.26321 334.041322 
L 444.064356 332.712778 
L 442.808566 331.384234 
L 441.518211 330.05569 
L 440.221157 328.727146 
L 438.94924 327.398601 
L 437.736375 326.070057 
L 436.616517 324.741513 
L 435.621635 323.412969 
L 434.779905 322.084425 
L 434.114276 320.75588 
L 433.641525 319.427336 
L 433.371866 318.098792 
L 433.309091 316.770248 
L 433.451201 315.441704 
L 433.791394 314.11316 
L 434.319276 312.784615 
L 435.022125 311.456071 
L 435.886052 310.127527 
L 436.896934 308.798983 
L 438.041013 307.470439 
L 439.305127 306.141894 
L 440.676586 304.81335 
L 442.14275 303.484806 
L 443.690411 302.156262 
L 445.305113 300.827718 
L 446.970547 299.499174 
L 448.668136 298.170629 
L 450.376912 296.842085 
L 452.073741 295.513541 
L 453.733893 294.184997 
L 455.331933 292.856453 
L 456.842838 291.527908 
L 458.243248 290.199364 
L 459.512722 288.87082 
L 460.63488 287.542276 
L 461.598339 286.213732 
L 462.397354 284.885188 
L 463.032124 283.556643 
L 463.50875 282.228099 
L 463.838874 280.899555 
L 464.039018 279.571011 
L 464.12972 278.242467 
L 464.134508 276.913922 
L 464.078806 275.585378 
L 463.988815 274.256834 
L 463.890451 272.92829 
L 463.808363 271.599746 
L 463.765067 270.271202 
L 463.780224 268.942657 
L 463.870056 267.614113 
L 464.046925 266.285569 
L 464.319068 264.957025 
L 464.690479 263.628481 
L 465.160963 262.299936 
L 465.726327 260.971392 
L 466.378735 259.642848 
L 467.107176 258.314304 
L 467.898068 256.98576 
L 468.735935 255.657216 
L 469.604151 254.328671 
L 488.126758 254.328671 
L 488.126758 254.328671 
L 488.994974 255.657216 
L 489.832841 256.98576 
L 490.623733 258.314304 
L 491.352174 259.642848 
L 492.004582 260.971392 
L 492.569946 262.299936 
L 493.04043 263.628481 
L 493.411841 264.957025 
L 493.683984 266.285569 
L 493.860853 267.614113 
L 493.950685 268.942657 
L 493.965842 270.271202 
L 493.922546 271.599746 
L 493.840458 272.92829 
L 493.742094 274.256834 
L 493.652103 275.585378 
L 493.596401 276.913922 
L 493.60119 278.242467 
L 493.691891 279.571011 
L 493.892035 280.899555 
L 494.222159 282.228099 
L 494.698786 283.556643 
L 495.333555 284.885188 
L 496.13257 286.213732 
L 497.096029 287.542276 
L 498.218187 288.87082 
L 499.487661 290.199364 
L 500.888071 291.527908 
L 502.398976 292.856453 
L 503.997016 294.184997 
L 505.657168 295.513541 
L 507.353997 296.842085 
L 509.062773 298.170629 
L 510.760362 299.499174 
L 512.425796 300.827718 
L 514.040498 302.156262 
L 515.588159 303.484806 
L 517.054323 304.81335 
L 518.425782 306.141894 
L 519.689896 307.470439 
L 520.833975 308.798983 
L 521.844857 310.127527 
L 522.708784 311.456071 
L 523.411633 312.784615 
L 523.939515 314.11316 
L 524.279708 315.441704 
L 524.421818 316.770248 
L 524.359043 318.098792 
L 524.089384 319.427336 
L 523.616633 320.75588 
L 522.951004 322.084425 
L 522.109274 323.412969 
L 521.114392 324.741513 
L 519.994534 326.070057 
L 518.781669 327.398601 
L 517.509752 328.727146 
L 516.212699 330.05569 
L 514.922343 331.384234 
L 513.666553 332.712778 
L 512.467699 334.041322 
L 511.341583 335.369866 
L 510.296932 336.698411 
L 509.335451 338.026955 
L 508.452385 339.355499 
L 507.637508 340.684043 
L 506.876383 342.012587 
L 506.151767 343.341132 
L 505.445006 344.669676 
L 504.737332 345.99822 
L 504.010973 347.326764 
L 503.250053 348.655308 
L 502.441276 349.983853 
L 501.574431 351.312397 
L 500.642736 352.640941 
L 499.643067 353.969485 
L 498.576076 355.298029 
L 497.446211 356.626573 
L 496.261608 357.955118 
L 495.033839 359.283662 
L 493.777492 360.612206 
L 492.509561 361.94075 
L 491.248659 363.269294 
L 490.014089 364.597839 
L 488.824819 365.926383 
L 487.698439 367.254927 
L 486.650188 368.583471 
L 485.692124 369.912015 
L 484.832531 371.240559 
L 484.075578 372.569104 
L 483.421294 373.897648 
L 482.865821 375.226192 
L 482.401931 376.554736 
L 482.019737 377.88328 
L 481.707546 379.211825 
L 481.452744 380.540369 
L 481.242675 381.868913 
L 481.065407 383.197457 
L 480.910358 384.526001 
L 480.768746 385.854545 
z
" style="fill:#008fd5;fill-opacity:0.3;"/>
   </g>
   <g id="LineCollection_1">
    <path clip-path="url(#p1e0b11dfcd)" d="M 91.636364 67.745455 
L 137.192727 67.745455 
" style="fill:none;stroke:#008fd5;stroke-width:4;"/>
    <path clip-path="url(#p1e0b11dfcd)" d="M 273.861818 196.212587 
L 319.418182 196.212587 
" style="fill:none;stroke:#008fd5;stroke-width:4;"/>
    <path clip-path="url(#p1e0b11dfcd)" d="M 456.087273 254.328671 
L 501.643636 254.328671 
" style="fill:none;stroke:#008fd5;stroke-width:4;"/>
   </g>
   <g id="LineCollection_2">
    <path clip-path="url(#p1e0b11dfcd)" d="M 91.636364 361.384615 
L 137.192727 361.384615 
" style="fill:none;stroke:#008fd5;stroke-width:4;"/>
    <path clip-path="url(#p1e0b11dfcd)" d="M 273.861818 370.560839 
L 319.418182 370.560839 
" style="fill:none;stroke:#008fd5;stroke-width:4;"/>
    <path clip-path="url(#p1e0b11dfcd)" d="M 456.087273 385.854545 
L 501.643636 385.854545 
" style="fill:none;stroke:#008fd5;stroke-width:4;"/>
   </g>
   <g id="LineCollection_3">
    <path clip-path="url(#p1e0b11dfcd)" d="M 114.414545 361.384615 
L 114.414545 67.745455 
" style="fill:none;stroke:#008fd5;stroke-width:4;"/>
    <path clip-path="url(#p1e0b11dfcd)" d="M 296.64 370.560839 
L 296.64 196.212587 
" style="fill:none;stroke:#008fd5;stroke-width:4;"/>
    <path clip-path="url(#p1e0b11dfcd)" d="M 478.865455 385.854545 
L 478.865455 254.328671 
" style="fill:none;stroke:#008fd5;stroke-width:4;"/>
   </g>
   <g id="LineCollection_4">
    <path clip-path="url(#p1e0b11dfcd)" d="M 91.636364 306.327273 
L 137.192727 306.327273 
" style="fill:none;stroke:#008fd5;stroke-width:4;"/>
    <path clip-path="url(#p1e0b11dfcd)" d="M 273.861818 315.503497 
L 319.418182 315.503497 
" style="fill:none;stroke:#008fd5;stroke-width:4;"/>
    <path clip-path="url(#p1e0b11dfcd)" d="M 456.087273 315.503497 
L 501.643636 315.503497 
" style="fill:none;stroke:#008fd5;stroke-width:4;"/>
   </g>
   <g id="patch_3">
    <path d="M 46.08 401.76 
L 46.08 51.84 
" style="fill:none;stroke:#f0f0f0;stroke-linecap:square;stroke-linejoin:miter;stroke-width:3;"/>
   </g>
   <g id="patch_4">
    <path d="M 547.2 401.76 
L 547.2 51.84 
" style="fill:none;stroke:#f0f0f0;stroke-linecap:square;stroke-linejoin:miter;stroke-width:3;"/>
   </g>
   <g id="patch_5">
    <path d="M 46.08 401.76 
L 547.2 401.76 
" style="fill:none;stroke:#f0f0f0;stroke-linecap:square;stroke-linejoin:miter;stroke-width:3;"/>
   </g>
   <g id="patch_6">
    <path d="M 46.08 51.84 
L 547.2 51.84 
" style="fill:none;stroke:#f0f0f0;stroke-linecap:square;stroke-linejoin:miter;stroke-width:3;"/>
   </g>
   <g id="text_10">
    <!-- Miles per Gallon (MPG) by Origin -->
    <g transform="translate(132.69825 45.84)scale(0.2016 -0.2016)">
     <defs>
      <path d="M 9.8125 72.90625 
L 24.515625 72.90625 
L 43.109375 23.296875 
L 61.8125 72.90625 
L 76.515625 72.90625 
L 76.515625 0 
L 66.890625 0 
L 66.890625 64.015625 
L 48.09375 14.015625 
L 38.1875 14.015625 
L 19.390625 64.015625 
L 19.390625 0 
L 9.8125 0 
z
" id="DejaVuSans-77"/>
      <path d="M 9.421875 75.984375 
L 18.40625 75.984375 
L 18.40625 0 
L 9.421875 0 
z
" id="DejaVuSans-108"/>
      <path id="DejaVuSans-32"/>
      <path d="M 59.515625 10.40625 
L 59.515625 29.984375 
L 43.40625 29.984375 
L 43.40625 38.09375 
L 69.28125 38.09375 
L 69.28125 6.78125 
Q 63.578125 2.734375 56.6875 0.65625 
Q 49.8125 -1.421875 42 -1.421875 
Q 24.90625 -1.421875 15.25 8.5625 
Q 5.609375 18.5625 5.609375 36.375 
Q 5.609375 54.25 15.25 64.234375 
Q 24.90625 74.21875 42 74.21875 
Q 49.125 74.21875 55.546875 72.453125 
Q 61.96875 70.703125 67.390625 67.28125 
L 67.390625 56.78125 
Q 61.921875 61.421875 55.765625 63.765625 
Q 49.609375 66.109375 42.828125 66.109375 
Q 29.4375 66.109375 22.71875 58.640625 
Q 16.015625 51.171875 16.015625 36.375 
Q 16.015625 21.625 22.71875 14.15625 
Q 29.4375 6.6875 42.828125 6.6875 
Q 48.046875 6.6875 52.140625 7.59375 
Q 56.25 8.5 59.515625 10.40625 
z
" id="DejaVuSans-71"/>
      <path d="M 54.890625 33.015625 
L 54.890625 0 
L 45.90625 0 
L 45.90625 32.71875 
Q 45.90625 40.484375 42.875 44.328125 
Q 39.84375 48.1875 33.796875 48.1875 
Q 26.515625 48.1875 22.3125 43.546875 
Q 18.109375 38.921875 18.109375 30.90625 
L 18.109375 0 
L 9.078125 0 
L 9.078125 54.6875 
L 18.109375 54.6875 
L 18.109375 46.1875 
Q 21.34375 51.125 25.703125 53.5625 
Q 30.078125 56 35.796875 56 
Q 45.21875 56 50.046875 50.171875 
Q 54.890625 44.34375 54.890625 33.015625 
z
" id="DejaVuSans-110"/>
      <path d="M 31 75.875 
Q 24.46875 64.65625 21.28125 53.65625 
Q 18.109375 42.671875 18.109375 31.390625 
Q 18.109375 20.125 21.3125 9.0625 
Q 24.515625 -2 31 -13.1875 
L 23.1875 -13.1875 
Q 15.875 -1.703125 12.234375 9.375 
Q 8.59375 20.453125 8.59375 31.390625 
Q 8.59375 42.28125 12.203125 53.3125 
Q 15.828125 64.359375 23.1875 75.875 
z
" id="DejaVuSans-40"/>
      <path d="M 19.671875 64.796875 
L 19.671875 37.40625 
L 32.078125 37.40625 
Q 38.96875 37.40625 42.71875 40.96875 
Q 46.484375 44.53125 46.484375 51.125 
Q 46.484375 57.671875 42.71875 61.234375 
Q 38.96875 64.796875 32.078125 64.796875 
z
M 9.8125 72.90625 
L 32.078125 72.90625 
Q 44.34375 72.90625 50.609375 67.359375 
Q 56.890625 61.8125 56.890625 51.125 
Q 56.890625 40.328125 50.609375 34.8125 
Q 44.34375 29.296875 32.078125 29.296875 
L 19.671875 29.296875 
L 19.671875 0 
L 9.8125 0 
z
" id="DejaVuSans-80"/>
      <path d="M 8.015625 75.875 
L 15.828125 75.875 
Q 23.140625 64.359375 26.78125 53.3125 
Q 30.421875 42.28125 30.421875 31.390625 
Q 30.421875 20.453125 26.78125 9.375 
Q 23.140625 -1.703125 15.828125 -13.1875 
L 8.015625 -13.1875 
Q 14.5 -2 17.703125 9.0625 
Q 20.90625 20.125 20.90625 31.390625 
Q 20.90625 42.671875 17.703125 53.65625 
Q 14.5 64.65625 8.015625 75.875 
z
" id="DejaVuSans-41"/>
      <path d="M 48.6875 27.296875 
Q 48.6875 37.203125 44.609375 42.84375 
Q 40.53125 48.484375 33.40625 48.484375 
Q 26.265625 48.484375 22.1875 42.84375 
Q 18.109375 37.203125 18.109375 27.296875 
Q 18.109375 17.390625 22.1875 11.75 
Q 26.265625 6.109375 33.40625 6.109375 
Q 40.53125 6.109375 44.609375 11.75 
Q 48.6875 17.390625 48.6875 27.296875 
z
M 18.109375 46.390625 
Q 20.953125 51.265625 25.265625 53.625 
Q 29.59375 56 35.59375 56 
Q 45.5625 56 51.78125 48.09375 
Q 58.015625 40.1875 58.015625 27.296875 
Q 58.015625 14.40625 51.78125 6.484375 
Q 45.5625 -1.421875 35.59375 -1.421875 
Q 29.59375 -1.421875 25.265625 0.953125 
Q 20.953125 3.328125 18.109375 8.203125 
L 18.109375 0 
L 9.078125 0 
L 9.078125 75.984375 
L 18.109375 75.984375 
z
" id="DejaVuSans-98"/>
      <path d="M 32.171875 -5.078125 
Q 28.375 -14.84375 24.75 -17.8125 
Q 21.140625 -20.796875 15.09375 -20.796875 
L 7.90625 -20.796875 
L 7.90625 -13.28125 
L 13.1875 -13.28125 
Q 16.890625 -13.28125 18.9375 -11.515625 
Q 21 -9.765625 23.484375 -3.21875 
L 25.09375 0.875 
L 2.984375 54.6875 
L 12.5 54.6875 
L 29.59375 11.921875 
L 46.6875 54.6875 
L 56.203125 54.6875 
z
" id="DejaVuSans-121"/>
      <path d="M 39.40625 66.21875 
Q 28.65625 66.21875 22.328125 58.203125 
Q 16.015625 50.203125 16.015625 36.375 
Q 16.015625 22.609375 22.328125 14.59375 
Q 28.65625 6.59375 39.40625 6.59375 
Q 50.140625 6.59375 56.421875 14.59375 
Q 62.703125 22.609375 62.703125 36.375 
Q 62.703125 50.203125 56.421875 58.203125 
Q 50.140625 66.21875 39.40625 66.21875 
z
M 39.40625 74.21875 
Q 54.734375 74.21875 63.90625 63.9375 
Q 73.09375 53.65625 73.09375 36.375 
Q 73.09375 19.140625 63.90625 8.859375 
Q 54.734375 -1.421875 39.40625 -1.421875 
Q 24.03125 -1.421875 14.8125 8.828125 
Q 5.609375 19.09375 5.609375 36.375 
Q 5.609375 53.65625 14.8125 63.9375 
Q 24.03125 74.21875 39.40625 74.21875 
z
" id="DejaVuSans-79"/>
      <path d="M 45.40625 27.984375 
Q 45.40625 37.75 41.375 43.109375 
Q 37.359375 48.484375 30.078125 48.484375 
Q 22.859375 48.484375 18.828125 43.109375 
Q 14.796875 37.75 14.796875 27.984375 
Q 14.796875 18.265625 18.828125 12.890625 
Q 22.859375 7.515625 30.078125 7.515625 
Q 37.359375 7.515625 41.375 12.890625 
Q 45.40625 18.265625 45.40625 27.984375 
z
M 54.390625 6.78125 
Q 54.390625 -7.171875 48.1875 -13.984375 
Q 42 -20.796875 29.203125 -20.796875 
Q 24.46875 -20.796875 20.265625 -20.09375 
Q 16.0625 -19.390625 12.109375 -17.921875 
L 12.109375 -9.1875 
Q 16.0625 -11.328125 19.921875 -12.34375 
Q 23.78125 -13.375 27.78125 -13.375 
Q 36.625 -13.375 41.015625 -8.765625 
Q 45.40625 -4.15625 45.40625 5.171875 
L 45.40625 9.625 
Q 42.625 4.78125 38.28125 2.390625 
Q 33.9375 0 27.875 0 
Q 17.828125 0 11.671875 7.65625 
Q 5.515625 15.328125 5.515625 27.984375 
Q 5.515625 40.671875 11.671875 48.328125 
Q 17.828125 56 27.875 56 
Q 33.9375 56 38.28125 53.609375 
Q 42.625 51.21875 45.40625 46.390625 
L 45.40625 54.6875 
L 54.390625 54.6875 
z
" id="DejaVuSans-103"/>
     </defs>
     <use xlink:href="#DejaVuSans-77"/>
     <use x="86.279297" xlink:href="#DejaVuSans-105"/>
     <use x="114.0625" xlink:href="#DejaVuSans-108"/>
     <use x="141.845703" xlink:href="#DejaVuSans-101"/>
     <use x="203.369141" xlink:href="#DejaVuSans-115"/>
     <use x="255.46875" xlink:href="#DejaVuSans-32"/>
     <use x="287.255859" xlink:href="#DejaVuSans-112"/>
     <use x="350.732422" xlink:href="#DejaVuSans-101"/>
     <use x="412.255859" xlink:href="#DejaVuSans-114"/>
     <use x="453.369141" xlink:href="#DejaVuSans-32"/>
     <use x="485.15625" xlink:href="#DejaVuSans-71"/>
     <use x="562.646484" xlink:href="#DejaVuSans-97"/>
     <use x="623.925781" xlink:href="#DejaVuSans-108"/>
     <use x="651.708984" xlink:href="#DejaVuSans-108"/>
     <use x="679.492188" xlink:href="#DejaVuSans-111"/>
     <use x="740.673828" xlink:href="#DejaVuSans-110"/>
     <use x="804.052734" xlink:href="#DejaVuSans-32"/>
     <use x="835.839844" xlink:href="#DejaVuSans-40"/>
     <use x="874.853516" xlink:href="#DejaVuSans-77"/>
     <use x="961.132812" xlink:href="#DejaVuSans-80"/>
     <use x="1021.435547" xlink:href="#DejaVuSans-71"/>
     <use x="1098.925781" xlink:href="#DejaVuSans-41"/>
     <use x="1137.939453" xlink:href="#DejaVuSans-32"/>
     <use x="1169.726562" xlink:href="#DejaVuSans-98"/>
     <use x="1233.203125" xlink:href="#DejaVuSans-121"/>
     <use x="1292.382812" xlink:href="#DejaVuSans-32"/>
     <use x="1324.169922" xlink:href="#DejaVuSans-79"/>
     <use x="1402.880859" xlink:href="#DejaVuSans-114"/>
     <use x="1443.994141" xlink:href="#DejaVuSans-105"/>
     <use x="1471.777344" xlink:href="#DejaVuSans-103"/>
     <use x="1535.253906" xlink:href="#DejaVuSans-105"/>
     <use x="1563.037109" xlink:href="#DejaVuSans-110"/>
    </g>
   </g>
  </g>
 </g>
 <defs>
  <clipPath id="p1e0b11dfcd">
   <rect height="349.92" width="501.12" x="46.08" y="51.84"/>
  </clipPath>
 </defs>
</svg>
